<svg version="1" xmlns="http://www.w3.org/2000/svg" width="682.667" height="682.667"
     viewBox="0 0 512.000000 512.000000">
    <path d="M77.5 31.4c-3.7 1.6-9 6.7-11.2 11-1.1 2-1.7 5.5-1.8 9.6 0 8.7 3.4 14.7 10.8 19.1 5 2.9 5.6 3 13.8 2.5l8.6-.4 22.1 22.1C132 107.5 142 118 142 118.7c0 1-15.5 10.2-54.5 32.6-13.2 7.5-17.6 11.1-20.8 17.2l-2.2 4-.3 96.4c-.3 108.5-.7 102.4 7.2 110.3 2.9 3 19.3 13 54.6 33.3 27.7 15.9 57.9 33.3 67 38.6 9.1 5.2 23 13.2 30.8 17.8 15.3 8.8 19.9 10.2 28.2 9 3.4-.5 14.2-6.2 42.5-22.6 20.9-12.1 57.8-33.4 82-47.3 28-16.2 45.3-26.8 47.7-29.2 7.1-7.2 6.8-3.2 6.8-107.8 0-106.5.4-100.7-7.9-108.9-3.2-3.2-14.8-10.4-37-23.1-17.8-10.2-32.6-19.1-32.9-19.8-.3-.9 8.2-10.1 21.8-23.7l22.4-22.4 8.1.6c6.9.5 8.6.3 12.1-1.5 16.6-8.5 17.4-30.9 1.3-39.7-4.4-2.4-5.9-2.7-11.9-2.3-5.3.3-7.6.9-10.6 3.1-7.8 5.4-10.8 12.4-9.9 23.2l.6 7-24 23.9c-18.5 18.4-24.4 23.7-25.7 23.2-1.7-.6-34.6-19.5-64.9-37.1-7.7-4.5-15.7-8.8-17.9-9.5-5.4-1.7-13.6-.8-19.5 2.2-4.3 2.3-38.5 22-67.5 39-5.5 3.2-10.6 5.8-11.5 5.8-1.4 0-43.6-41.3-47.2-46.1-1.7-2.4-1.8-3.3-.7-8.4.9-4.8.8-6.5-.5-10.9-1.9-5.8-6.8-11.5-12.2-14-4-1.9-13.8-2-18-.2zm120.2 101.1c6.8 2.9 9.6 6.8 11.3 15.5 4.1 21.9-18.2 35.3-29.7 17.9-2.3-3.5-2.9-5.6-3.1-11.9-.3-6.6-.1-8.4 2.1-12.7 3-5.7 4.3-7 9.4-8.9 4.9-1.7 5.6-1.7 10 .1zm108.5-.5c11 3.1 16.3 19.7 10.1 32.1-4.4 8.5-11.8 11.9-19.5 9-7.1-2.7-12.6-13.8-11.5-23.2 1-8.5 5-14.4 11.7-17.3 4.2-1.8 4.5-1.9 9.2-.6zm96.1 129.1c6.1 1.7 6.9 4.8 6.5 24.9-.3 16.2-.4 16.9-2.7 19.4l-2.4 2.6H248c-155.4 0-155.7 0-158.3-2-3.7-2.9-4.7-7.7-4.7-22 .1-16.8 1.6-20.9 8.5-23.2 3.6-1.1 304.6-.9 308.8.3zm3.3 76.2c2.3 2 2.8 3.4 3.2 8.5.7 9.7-.5 14.8-4.3 19.1-4.5 5-23.5 15.6-30.5 17.1-4 .8-39.7 1-130.1.8l-124.6-.3-8.4-4.2c-13.8-7-20.6-11.7-22.8-16.2-4.4-8.5-3.6-21 1.6-25 2.6-2.1 2.7-2.1 157.9-2.1h155.3l2.7 2.3zm-82.5 73.4c2 2 3.1 1.3-56.6 35.6-19.1 11-18.9 11-35.7 1.4-7.3-4.1-18.7-10.6-25.3-14.5-6.6-3.8-16.9-9.8-23-13.3-11.1-6.5-13.7-9.3-9.3-10.2 1.3-.2 35.2-.4 75.5-.3 54.2.1 73.5.4 74.4 1.3z"/>
</svg>